<?xml version="1.0" standalone="no"?>
<!DOCTYPE svg PUBLIC "-//W3C//DTD SVG 20010904//EN"
 "http://www.w3.org/TR/2001/REC-SVG-20010904/DTD/svg10.dtd">
<svg version="1.0" xmlns="http://www.w3.org/2000/svg"
 width="128.000000pt" height="128.000000pt" viewBox="0 0 128.000000 128.000000"
 preserveAspectRatio="xMidYMid meet">

<g transform="translate(0.000000,128.000000) scale(0.100000,-0.100000)"
fill="#dc3545" stroke="none">
<path d="M399 1071 c-104 -23 -232 -81 -315 -144 -94 -71 -93 -64 -11 -145
l72 -72 45 36 c227 180 518 185 746 13 l62 -47 72 73 72 72 -54 47 c-66 58
-200 128 -298 156 -109 31 -279 36 -391 11z"/>
<path d="M455 746 c-62 -15 -164 -69 -199 -105 l-26 -27 70 -69 c61 -61 72
-68 88 -57 112 81 256 88 343 15 30 -26 31 -26 50 -7 19 20 19 20 -16 54 l-35
34 51 52 52 52 -41 21 c-95 48 -230 63 -337 37z"/>
<path d="M865 630 l-49 -50 64 -65 64 -65 -64 -65 -65 -65 50 -50 50 -50 65
65 64 65 68 -67 68 -67 50 49 50 49 -67 68 -67 68 67 68 67 68 -50 49 -50 50
-67 -68 -68 -67 -65 65 -66 65 -49 -50z"/>
<path d="M515 408 c-38 -20 -55 -51 -55 -100 0 -66 37 -108 100 -115 61 -6
105 22 121 76 15 50 6 86 -31 122 -23 23 -37 29 -72 29 -24 0 -52 -6 -63 -12z"/>
</g>
</svg>
